<svg width="33" height="46" viewBox="0 0 33 46" fill="none" xmlns="http://www.w3.org/2000/svg">
<path d="M15.4941 17.4585C15.4791 15.5536 17.0296 13.9587 18.8906 14.3654C20.3627 14.6871 21.7859 15.2235 23.1132 15.9625C25.4502 17.2638 27.4098 19.1488 28.8007 21.4336C30.1915 23.7184 30.9661 26.3249 31.0488 28.9985C31.1314 31.672 30.5193 34.3213 29.2722 36.6877C28.0252 39.054 26.1857 41.0566 23.9336 42.4997C21.6814 43.9428 19.0935 44.7772 16.4225 44.9214C13.7516 45.0656 11.0889 44.5147 8.69441 43.3225C7.33451 42.6453 6.08753 41.7745 4.99006 40.742C3.60258 39.4367 4.04172 37.2562 5.62156 36.1918C7.20141 35.1273 9.32759 35.6291 10.9258 36.6657C11.1969 36.8415 11.4784 37.0023 11.7692 37.1471C13.0958 37.8076 14.5709 38.1128 16.0506 38.0329C17.5303 37.953 18.964 37.4908 20.2117 36.6913C21.4594 35.8918 22.4785 34.7824 23.1694 33.4715C23.8602 32.1605 24.1993 30.6928 24.1536 29.2116C24.1078 27.7304 23.6786 26.2865 22.9081 25.0207C22.1376 23.7549 21.0519 22.7106 19.7572 21.9897C19.4734 21.8316 19.1816 21.6903 18.8834 21.5661C17.1249 20.8336 15.5091 19.3634 15.4941 17.4585Z" fill="white"/>
<path d="M16.3837 28.1155C16.3031 30.0187 14.6746 31.5338 12.8363 31.0343C11.3822 30.6392 9.98764 30.0321 8.69911 29.2274C6.43031 27.8106 4.56773 25.8296 3.29322 23.4779C2.01871 21.1262 1.37585 18.4842 1.42741 15.8098C1.47896 13.1355 2.22318 10.5202 3.58738 8.21935C4.95158 5.91853 6.88914 4.01081 9.21085 2.68247C11.5326 1.35413 14.1591 0.650586 16.8339 0.64053C19.5087 0.630474 22.1405 1.31425 24.4721 2.62509C25.7963 3.36957 26.9981 4.30187 28.0424 5.3881C29.3626 6.76137 28.8147 8.9171 27.1834 9.90095C25.5522 10.8848 23.4538 10.277 21.9096 9.16155C21.6477 8.97239 21.3746 8.79767 21.0914 8.63844C19.7997 7.91224 18.3417 7.53342 16.8598 7.539C15.378 7.54457 13.9229 7.93433 12.6367 8.67023C11.3504 9.40613 10.277 10.463 9.52127 11.7377C8.7655 13.0123 8.3532 14.4612 8.32464 15.9428C8.29608 17.4244 8.65222 18.888 9.3583 20.1909C10.0644 21.4937 11.0963 22.5912 12.3532 23.3761C12.6287 23.5482 12.9131 23.704 13.2047 23.843C14.9243 24.6627 16.4643 26.2122 16.3837 28.1155Z" fill="white"/>
</svg>
